<svg xmlns="http://www.w3.org/2000/svg" fill="none" viewBox="0 0 512 512">
  <style>
    :root { --fg: #101010; }
    @media (prefers-color-scheme: dark) { :root { --fg: #ffffff; } }
  </style>
  <g fill="var(--fg)">
    <path d="M15.4482 484.85h26.9165V38.7085H15.4482z" />
    <path fill-rule="evenodd"
      d="M337.548 68.6107 320.95 119.295c32.748 22.875 54.132 60.702 54.132 103.462 0 69.822-56.824 126.487-126.508 126.487h-2.691L201.172 484.85h-28.113l44.562-135.606h-66.843V484.85h-26.916V291.383H96.1977V484.85H69.2812V38.7085h.1496v-.1495H194.143c44.413 0 83.441 23.0247 106.021 57.7114l22.73-69.6724h29.608L496.953 484.85h-28.561zm-49.795 62.7953c-11.963-5.233-25.272-8.074-39.179-8.074h-97.796V264.62h43.365c54.88 0 99.442-44.704 99.442-99.574 0-11.812-2.094-23.175-5.832-33.64M123.862 264.62V96.5694h.149v-.1495h124.563c6.38 0 12.66.4978 18.842 1.4951-18.243-19.885-44.263-32.2945-73.273-32.2945H96.1977V264.62zm196.19-110.937c.398 3.787.599 7.575.599 11.363 0 69.672-56.674 126.486-126.508 126.486h-43.365v30.8h97.946c54.88 0 99.441-44.555 99.441-99.425 0-26.913-10.617-51.283-28.113-69.224"
      clip-rule="evenodd" />
  </g>
</svg>