<svg width="512" height="512" viewBox="0 0 512 512" fill="none" xmlns="http://www.w3.org/2000/svg">
    <g clip-path="url(#clip0_96_1424)">
        <path d="M15.4482 484.85H42.3647V38.7085H15.4482V484.85Z" fill="white" />
        <path fill-rule="evenodd" clip-rule="evenodd"
            d="M337.548 68.6107L320.95 119.295C353.698 142.17 375.082 179.997 375.082 222.757C375.082 292.579 318.258 349.244 248.574 349.244H245.883L201.172 484.85H173.059L217.621 349.244H150.778V484.85H123.862V291.383H96.1977V484.85H69.2812V38.7085H69.4308V38.559H194.143C238.556 38.559 277.584 61.5837 300.164 96.2704L322.894 26.598H352.502L496.953 484.85H468.392L337.548 68.6107ZM287.753 131.406C275.79 126.173 262.481 123.332 248.574 123.332H150.778V264.62H194.143C249.023 264.62 293.585 219.916 293.585 165.046C293.585 153.234 291.491 141.871 287.753 131.406ZM123.862 264.62V96.5694H124.011V96.4199H248.574C254.954 96.4199 261.234 96.9177 267.416 97.915C249.173 78.03 223.153 65.6205 194.143 65.6205H96.1977V264.62H123.862ZM320.052 153.683C320.45 157.47 320.651 161.258 320.651 165.046C320.651 234.718 263.977 291.532 194.143 291.532H150.778V322.332H248.724C303.604 322.332 348.165 277.777 348.165 222.907C348.165 195.994 337.548 171.624 320.052 153.683Z"
            fill="white" />
    </g>
    <defs>
        <clipPath id="clip0_96_1424">
            <rect width="512" height="512" fill="white" />
        </clipPath>
    </defs>
</svg>